# xmcd
#
# Track frame offsets:
#	150
#	11708
#	21212
#	38019
#	49730
#	62005
#	74014
#	87604
#	98993
#	108812
#	122310
#	133896
#	143494
#	156787
#	169079
#	185839
#
# Disc length: 2693 seconds
#
# Revision: 1
# Processed by: cddbd v1.5.2PL0 Copyright (c) Steve Scherf et al.
# Submitted via: audiograbber 1.83.01
#
DISCID=dc0a8310
DTITLE=Various Artist - All The... 60's [Disc 3]
DYEAR=2012
DGENRE=Pop
TTITLE0=Normie Rowe - Shakin' All Over
TTITLE1=Johnny O'Keefe - She's My Baby
TTITLE2=Tony Joe White - Polk Salad Annie
TTITLE3=Buffalo Springfield - For What It's Worth
TTITLE4=R.B. Greaves - Take A Letter, Maria
TTITLE5=Ray Brown - The Same Old Song
TTITLE6=Eddie Harris - I'm Gonna Leave You By Yourself
TTITLE7=Cascades - Rhythm Of The Rain
TTITLE8=The Fireballs - Bottle Of Wine
TTITLE9=Vanilla Fudge - You Keep Me Hangin' On
TTITLE10=Jack Nitzsche - The Lonely Surfer
TTITLE11=Johnny and The Hurricanes - Beatnik Fly
TTITLE12=B.J. Thomas - Mama
TTITLE13=Solomon Burke - Everybody Needs Somebody To Love
TTITLE14=Billy Pilgrim - Mama Says
TTITLE15=Lonnie Mack - I Found A Love
EXTD=
EXTT0=
EXTT1=
EXTT2=
EXTT3=
EXTT4=
EXTT5=
EXTT6=
EXTT7=
EXTT8=
EXTT9=
EXTT10=
EXTT11=
EXTT12=
EXTT13=
EXTT14=
EXTT15=
PLAYORDER=
